<?xml version="1.0" standalone="no"?>
<!DOCTYPE svg PUBLIC "-//W3C//DTD SVG 20010904//EN"
 "http://www.w3.org/TR/2001/REC-SVG-20010904/DTD/svg10.dtd">
<svg version="1.0" xmlns="http://www.w3.org/2000/svg"
 width="1152.000000pt" height="1152.000000pt" viewBox="0 0 1152.000000 1152.000000"
 preserveAspectRatio="xMidYMid meet">
<metadata>
Created by potrace 1.14, written by Peter Selinger 2001-2017
</metadata>
<g transform="translate(0.000000,1152.000000) scale(0.100000,-0.100000)"
fill="#000000" stroke="none">
<path d="M6885 8275 c-12 -10 -31 -59 -40 -104 -2 -11 -6 -25 -9 -29 -3 -5 -7
-19 -10 -33 -2 -13 -11 -44 -19 -69 -8 -25 -22 -72 -32 -105 -9 -33 -19 -67
-22 -75 -3 -8 -7 -21 -9 -28 -1 -7 -17 -61 -34 -120 -17 -59 -41 -138 -52
-177 -11 -38 -22 -77 -25 -85 -3 -8 -7 -19 -9 -25 -19 -74 -85 -299 -114 -387
l-21 -67 -52 23 c-29 12 -64 26 -79 29 l-27 7 0 -305 c-1 -298 -1 -307 -26
-393 -15 -48 -28 -94 -30 -103 -2 -9 -10 -37 -19 -62 -8 -25 -17 -57 -20 -71
-2 -13 -9 -33 -14 -43 -6 -10 -10 -21 -10 -26 -1 -16 -15 -72 -20 -82 -4 -5
-7 -14 -8 -20 -1 -5 -19 -66 -39 -135 -20 -69 -38 -132 -40 -140 -2 -8 -4 -15
-5 -15 -2 0 -7 -20 -15 -59 -3 -16 -8 -33 -11 -38 -5 -8 -57 -182 -70 -233 -7
-29 -10 -38 -17 -55 -5 -12 -22 -73 -33 -115 -1 -5 -26 -89 -54 -185 -29 -96
-53 -182 -55 -190 -2 -8 -12 -42 -23 -75 -22 -68 -44 -145 -48 -161 -1 -6 -13
-48 -27 -95 -13 -46 -27 -93 -30 -104 -3 -11 -17 -58 -32 -105 -14 -47 -28
-94 -30 -104 -3 -11 -18 -63 -34 -115 -16 -53 -32 -109 -37 -126 -10 -42 -11
-44 -14 -50 -1 -3 -4 -9 -5 -15 -1 -5 -4 -12 -5 -15 -1 -3 -3 -8 -4 -12 -2 -5
-8 -28 -15 -53 -7 -25 -15 -52 -17 -60 -2 -8 -17 -62 -35 -120 -17 -58 -35
-118 -39 -135 -30 -110 -143 -493 -151 -507 -5 -10 -9 -26 -9 -35 0 -17 17
-18 252 -16 139 0 256 1 259 2 4 1 11 18 17 39 6 20 20 69 32 107 11 39 23 79
25 90 2 11 21 74 41 140 19 66 37 125 38 130 1 6 7 24 13 40 6 17 15 44 19 60
10 40 11 45 13 48 2 1 4 12 7 25 2 12 13 48 23 80 11 32 22 69 25 83 2 13 9
38 14 54 17 49 54 174 57 193 2 9 4 17 5 17 0 0 30 99 66 220 63 213 71 243
79 275 2 8 4 16 5 18 2 1 4 7 5 12 1 6 4 12 5 15 1 3 3 8 4 13 2 4 8 27 15 52
7 25 15 53 16 62 2 9 8 25 14 36 6 11 8 22 4 25 -3 4 0 13 7 22 7 8 9 15 5 15
-4 0 -3 6 3 13 6 6 11 17 11 22 1 6 6 28 12 50 6 22 12 45 13 50 2 6 9 30 16
55 7 25 15 50 16 55 2 6 15 48 29 95 14 47 28 94 30 104 3 11 13 47 24 80 17
53 39 127 47 161 1 6 21 73 44 150 38 128 64 216 75 255 2 8 11 40 20 70 9 30
17 62 20 70 2 8 10 35 18 60 9 25 23 74 33 110 20 77 26 85 50 72 11 -5 30
-14 44 -20 28 -12 329 -122 345 -126 6 -2 21 -7 35 -13 44 -18 145 -55 155
-57 6 -1 27 -10 49 -19 21 -9 41 -17 43 -17 5 0 210 -74 248 -90 19 -8 53 -20
190 -70 30 -11 80 -29 110 -41 30 -12 57 -20 60 -20 3 1 19 -6 35 -14 16 -8
32 -15 35 -15 3 0 21 -7 41 -15 20 -8 40 -15 45 -15 5 0 23 -7 41 -15 18 -8
103 -39 188 -70 85 -30 164 -59 175 -64 23 -10 185 -71 200 -75 6 -2 19 -6 30
-10 102 -39 315 -116 414 -152 53 -19 105 -38 116 -43 32 -14 127 -48 170 -62
22 -7 44 -17 50 -21 5 -4 16 -8 25 -8 10 0 31 -7 47 -15 17 -8 68 -28 113 -44
l83 -28 -109 -43 c-60 -23 -114 -43 -121 -44 -7 -1 -16 -5 -19 -9 -4 -4 -13
-7 -19 -7 -7 0 -30 -8 -51 -17 -22 -9 -42 -18 -46 -19 -5 -1 -10 -3 -13 -4 -3
-1 -8 -3 -12 -5 -5 -1 -19 -6 -33 -12 -55 -23 -228 -83 -239 -83 -6 0 -11 -4
-11 -8 0 -5 -6 -9 -12 -9 -11 0 -257 -89 -313 -112 -11 -5 -36 -14 -55 -21
-19 -7 -44 -16 -55 -20 -11 -5 -54 -20 -95 -35 -41 -15 -88 -33 -105 -40 -16
-7 -50 -20 -75 -28 -25 -9 -101 -37 -170 -62 -69 -25 -129 -47 -135 -48 -5 -1
-12 -4 -15 -7 -3 -3 -32 -14 -65 -25 -33 -10 -67 -23 -75 -27 -16 -8 -338
-128 -355 -132 -5 -1 -26 -10 -46 -18 -20 -9 -50 -19 -68 -23 -17 -3 -31 -10
-31 -14 0 -4 -6 -8 -12 -8 -7 0 -62 -19 -123 -41 -60 -22 -117 -42 -125 -44
-8 -2 -17 -5 -20 -8 -6 -6 -68 -30 -92 -35 -9 -2 -30 -11 -47 -19 -17 -9 -31
-14 -31 -10 0 4 -6 2 -12 -4 -7 -6 -17 -11 -23 -12 -5 -1 -20 -6 -33 -11 -13
-5 -28 -9 -33 -9 -5 0 -17 -5 -27 -10 -9 -6 -123 -49 -252 -96 -129 -47 -258
-95 -287 -106 -29 -11 -54 -18 -56 -16 -2 1 -11 -3 -20 -11 -10 -7 -17 -10
-17 -5 0 5 -5 2 -10 -6 -5 -9 -9 -148 -9 -332 0 -262 2 -317 14 -321 7 -3 15
-3 17 1 2 4 39 20 83 36 44 15 114 41 155 57 41 15 143 53 225 84 83 31 164
63 180 70 17 7 71 27 120 45 50 18 101 37 115 43 14 6 27 11 30 12 3 1 14 5
25 9 11 5 56 21 100 38 44 16 94 35 110 41 17 7 32 12 35 13 3 0 19 6 35 13
17 7 73 28 125 47 52 19 104 39 115 44 56 25 204 80 218 80 9 0 19 5 22 10 4
6 11 8 16 5 5 -4 9 -2 9 3 0 5 12 12 28 15 15 3 45 14 67 23 48 21 43 19 83
29 17 4 32 10 32 14 0 4 21 13 47 21 26 7 59 19 73 27 14 7 31 13 38 13 7 0
20 4 30 9 9 6 71 30 137 54 66 25 129 48 140 53 11 4 22 8 25 9 3 1 12 5 20 8
30 12 126 49 190 72 36 13 88 32 115 43 28 10 124 47 215 81 91 34 174 65 185
70 67 28 183 71 191 71 5 0 20 6 34 13 14 7 61 26 105 41 44 16 85 32 90 36 6
4 24 11 40 15 37 10 34 9 70 24 17 6 82 31 145 55 63 24 124 47 135 52 11 4
22 8 25 8 5 1 143 54 340 130 l85 33 3 301 2 300 -37 12 c-21 7 -51 18 -68 25
-16 7 -55 22 -85 33 -30 11 -107 41 -170 65 -63 25 -127 48 -143 52 -15 4 -30
11 -33 16 -3 5 -14 9 -25 9 -11 0 -31 7 -44 16 -14 9 -25 13 -25 9 0 -4 -6 -3
-12 2 -7 6 -22 13 -33 16 -11 3 -110 40 -220 82 -110 42 -204 77 -210 79 -5 2
-17 6 -25 9 -65 27 -207 79 -217 80 -7 0 -13 4 -13 9 0 4 -3 7 -7 6 -5 -1 -21
4 -36 10 -16 7 -33 12 -38 12 -5 0 -17 5 -27 10 -9 6 -53 23 -97 39 -44 16
-116 42 -160 59 -44 17 -116 44 -160 60 -44 17 -93 36 -110 43 -16 6 -34 13
-40 14 -5 2 -71 26 -145 55 -74 28 -169 64 -210 80 -41 16 -147 56 -235 90
-88 34 -164 62 -170 64 -5 2 -19 6 -30 10 -122 46 -183 69 -200 76 -11 5 -83
32 -160 60 -77 28 -150 56 -162 61 -13 5 -33 13 -45 18 -13 6 -67 26 -120 45
-53 20 -107 40 -120 45 -26 10 -88 34 -135 51 -20 8 -33 19 -33 30 0 9 25 100
55 201 31 101 58 193 60 204 3 11 14 52 25 90 12 39 28 94 36 124 8 29 18 59
21 65 4 6 8 16 8 21 1 14 14 59 41 148 13 42 26 92 29 109 3 18 10 37 15 43 9
10 26 84 22 98 -1 4 3 7 8 7 6 0 10 6 8 13 -1 6 5 35 14 62 13 41 38 125 43
145 1 3 7 23 14 45 29 93 21 116 -32 96 -13 -5 -29 -6 -35 -2 -6 4 -35 5 -64
3 -29 -2 -64 -2 -78 -1 -26 1 -42 1 -75 0 -11 -1 -58 0 -104 1 -46 2 -90 -1
-96 -7z"/>
<path d="M5295 7969 c-55 -20 -176 -65 -270 -98 -93 -34 -177 -64 -185 -68
-23 -10 -23 -10 -57 -18 -18 -4 -33 -12 -33 -18 0 -6 -3 -8 -6 -5 -3 4 -22 0
-42 -9 -20 -8 -43 -16 -51 -18 -9 -2 -47 -16 -86 -30 -38 -15 -74 -28 -80 -30
-5 -1 -17 -5 -25 -8 -21 -9 -150 -56 -570 -207 -201 -73 -379 -139 -397 -146
-17 -8 -35 -14 -41 -14 -5 0 -31 -9 -58 -19 -63 -25 -88 -34 -94 -35 -3 -1
-11 -5 -17 -9 -7 -5 -13 -5 -13 -1 0 3 -6 2 -12 -3 -7 -6 -38 -18 -68 -28 -30
-10 -59 -21 -65 -25 -5 -4 -26 -11 -45 -15 -19 -4 -53 -15 -75 -25 -22 -10
-53 -22 -70 -28 -16 -6 -39 -14 -50 -18 -11 -4 -22 -8 -25 -9 -20 -5 -60 -19
-85 -30 -29 -12 -155 -59 -165 -61 -3 0 -18 -6 -33 -12 -16 -7 -32 -12 -36
-12 -5 0 -40 -13 -80 -29 -39 -17 -71 -28 -71 -26 0 2 -12 -2 -27 -10 -15 -8
-30 -12 -35 -9 -4 3 -8 0 -8 -5 0 -6 -3 -10 -7 -9 -10 3 -114 -32 -128 -42 -5
-4 -21 -11 -35 -15 -35 -10 -511 -181 -575 -206 -16 -7 -34 -13 -40 -15 -5 -1
-73 -26 -150 -54 -77 -28 -160 -58 -185 -67 -25 -8 -54 -19 -65 -23 -36 -16
-305 -112 -320 -114 -23 -3 -44 -38 -36 -61 4 -11 5 -63 4 -115 -4 -111 -4
-87 -1 -223 2 -60 0 -111 -4 -113 -4 -3 -3 -15 1 -27 5 -13 7 -35 4 -49 -4
-18 0 -27 14 -31 27 -8 165 -57 188 -67 11 -5 47 -18 80 -30 33 -11 67 -24 75
-27 8 -3 17 -7 20 -7 3 -1 19 -6 35 -13 62 -23 267 -97 530 -192 94 -34 178
-66 187 -71 10 -6 23 -10 29 -10 9 0 306 -106 364 -130 11 -5 61 -23 110 -40
50 -18 128 -46 175 -63 47 -18 88 -31 93 -29 4 1 7 -3 7 -8 0 -6 11 -10 23
-10 13 0 27 -3 31 -7 4 -5 11 -8 14 -9 11 -1 45 -15 64 -25 10 -5 23 -9 30 -9
11 0 81 -25 148 -53 14 -6 31 -11 39 -13 11 -2 81 -28 146 -54 11 -4 36 -13
55 -20 19 -7 44 -16 55 -20 11 -4 49 -18 85 -30 36 -12 74 -26 85 -31 11 -5
76 -29 145 -53 164 -58 316 -114 470 -171 69 -25 132 -48 140 -50 8 -2 16 -4
18 -5 1 -2 6 -3 11 -4 5 0 13 -4 17 -9 4 -4 14 -7 22 -7 8 0 28 -6 45 -14 18
-8 61 -25 97 -37 36 -12 69 -26 74 -31 6 -4 20 -8 33 -8 13 0 23 -4 23 -8 0
-4 10 -8 21 -9 12 -1 41 -11 65 -22 24 -12 48 -21 53 -21 5 0 22 -5 38 -12 15
-6 30 -12 33 -13 3 -1 12 -4 20 -8 33 -12 136 -49 145 -51 6 -2 21 -7 35 -13
14 -5 79 -29 145 -52 66 -24 138 -50 160 -59 21 -10 43 -18 47 -18 4 -1 9 -2
11 -4 3 -3 30 -9 52 -12 19 -3 19 4 20 319 l0 323 -40 16 c-22 9 -65 24 -95
34 -95 32 -264 91 -285 100 -19 9 -108 41 -225 80 -73 25 -251 89 -270 97 -8
3 -20 7 -26 8 -7 2 -51 17 -98 34 -47 17 -125 45 -173 62 -49 17 -117 41 -153
54 -36 13 -144 51 -240 85 -96 34 -245 87 -330 117 -85 31 -166 59 -180 63
-14 5 -70 25 -125 45 -55 20 -108 38 -118 40 -9 2 -21 6 -26 9 -5 3 -87 33
-182 67 -96 33 -250 88 -344 121 -93 33 -208 73 -255 89 -47 16 -92 33 -100
36 -8 3 -17 7 -20 7 -10 2 -165 58 -185 67 -11 4 -47 17 -80 28 -122 41 -167
59 -159 63 9 5 115 42 124 43 3 0 30 10 60 22 30 12 154 56 275 98 121 42 227
80 235 83 8 3 17 6 20 7 3 1 12 5 20 8 8 4 80 30 160 58 80 28 222 78 315 111
94 33 208 74 255 90 47 16 99 36 115 43 17 7 44 17 60 21 17 4 35 11 41 15 6
5 19 10 30 12 10 2 28 7 39 11 11 5 34 12 50 18 17 5 39 14 50 18 11 5 56 21
100 36 44 15 86 31 93 37 6 5 12 7 12 4 0 -4 29 5 65 18 36 14 65 21 65 17 0
-4 4 -2 8 4 4 7 30 19 57 27 28 8 74 24 103 36 28 11 52 17 52 13 0 -4 4 -2 8
3 4 6 23 16 42 22 46 14 269 92 295 103 39 16 90 35 100 36 22 5 271 95 288
104 10 6 22 8 27 5 5 -3 11 -1 14 4 5 7 161 65 206 76 3 1 12 5 20 8 17 8 268
97 290 104 13 4 15 47 15 328 0 178 -2 325 -5 328 -3 2 -50 -13 -105 -34z"/>
</g>
</svg>
